{"title":"Hausu.1977.BDRip.720p.x264-angrybunny-[CG]","uid":10688848,"size":3520888084,"categoryP":"video","categoryS":"hd___movies","magnet":"?xt=urn:btih:a1e25324f991c421995f7fb46da093e926939f27&amp;dn=Hausu.1977.BDRip.720p.x264-angrybunny-%5BCG%5D&amp;tr=udp%3A%2F%2Ftracker.openbittorrent.com%3A80&amp;tr=udp%3A%2F%2Fopen.demonii.com%3A1337&amp;tr=udp%3A%2F%2Ftracker.coppersurfer.tk%3A6969&amp;tr=udp%3A%2F%2Fexodus.desync.com%3A6969","seeders":7,"leechers":0,"uploader":"rpessoa","files":2,"time":1407095596,"description":"Seven girls on their summer trip pay a visit to a possessed house which plans to eat them in extremely bizzare and surreal ways.\n &lt;a href=&quot;\nhttp://www.imdb.com/title/tt0076162/&quot; rel=&quot;nofollow&quot; target=&quot;_NEW&quot;&gt;\nhttp://www.imdb.com/title/tt0076162/&lt;/a&gt;\n\nGeneral\nUnique ID : 182251349598471638607490471542866103503 (0x891C5549F3B7C3AFA085106024D4CCCF)\nComplete name : Hausu.1977.BDRip.720p.x264-angrybunny-[CG].mkv\nFormat : Matroska\nFormat version : Version 2\nFile size : 3.28 GiB\nDuration : 1h 27mn\nOverall bit rate : 5 336 Kbps\nEncoded date : UTC 2011-08-12 21:10:17\nWriting application : mkvmerge v4.8.0 ('I Got The...') built on May 24 2011 03:12:58\nWriting library : libebml v1.2.0 + libmatroska v1.1.0\n\nVideo\nID : 1\nFormat : AVC\nFormat/Info : Advanced Video Codec\nFormat profile : &lt;a class=&quot;__cf_email__&quot; href=&quot;/cdn-cgi/l/email-protection&quot; data-cfemail=&quot;5f173638371f136b716e&quot;&gt;[email&amp;#160;protected]&lt;/a&gt;&lt;script cf-hash='f9e31' type=&quot;text/javascript&quot;&gt;\n/* &lt;![CDATA[ */!function(){try{var t=&quot;currentScript&quot;in document?document.currentScript:function(){for(var t=document.getElementsByTagName(&quot;script&quot;),e=t.length;e--;)if(t[e].getAttribute(&quot;cf-hash&quot;))return t[e]}();if(t&amp;&amp;t.previousSibling){var e,r,n,i,c=t.previousSibling,a=c.getAttribute(&quot;data-cfemail&quot;);if(a){for(e=&quot;&quot;,r=parseInt(a.substr(0,2),16),n=2;a.length-n;n+=2)i=parseInt(a.substr(n,2),16)^r,e+=String.fromCharCode(i);e=document.createTextNode(e),c.parentNode.replaceChild(e,c)}}}catch(u){}}();/* ]]&gt; */&lt;/script&gt;\nFormat settings, CABAC : Yes\nFormat settings, ReFrames : 8 frames\nCodec ID : V_MPEG4/ISO/AVC\nDuration : 1h 27mn\nBit rate : 4 887 Kbps\nWidth : 960 pixels\nHeight : 720 pixels\nDisplay aspect ratio : 4:3\nFrame rate : 23.976 fps\nColor space : YUV\nChroma subsampling : 4:2:0\nBit depth : 8 bits\nScan type : Progressive\nBits/(Pixel*Frame) : 0.295\nStream size : 2.94 GiB (90%)\nWriting library : x264 core 115 r2008 4c552d8\nEncoding settings : cabac=1 / ref=8 / deblock=1:-2:-1 / analyse=0x3:0x133 / me=umh / subme=9 / psy=1 / psy_rd=1.20:0.15 / mixed_ref=1 / me_range=16 / chroma_me=1 / trellis=2 / 8x8dct=1 / cqm=0 / deadzone=21,11 / fast_pskip=0 / chroma_qp_offset=-3 / threads=12 / sliced_threads=0 / nr=0 / decimate=0 / interlaced=0 / bluray_compat=0 / constrained_intra=0 / bframes=3 / b_pyramid=2 / b_adapt=2 / b_bias=0 / direct=3 / weightb=1 / open_gop=0 / weightp=2 / keyint=250 / keyint_min=23 / scenecut=40 / intra_refresh=0 / rc_lookahead=60 / rc=2pass / mbtree=1 / bitrate=4887 / ratetol=1.0 / qcomp=0.60 / qpmin=0 / qpmax=69 / qpstep=4 / cplxblur=20.0 / qblur=0.5 / ip_ratio=1.40 / aq=1:0.80\nLanguage : English\nDefault : Yes\nForced : No\n\nAudio\nID : 2\nFormat : AC-3\nFormat/Info : Audio Coding 3\nMode extension : CM (complete main)\nCodec ID : A_AC3\nDuration : 1h 27mn\nBit rate mode : Constant\nBit rate : 448 Kbps\nChannel(s) : 1 channel\nChannel positions : Front: C\nSampling rate : 48.0 KHz\nBit depth : 16 bits\nCompression mode : Lossy\nStream size : 282 MiB (8%)\nTitle : Japanese\nLanguage : Japanese\nDefault : Yes\nForced : No\n\nText\nID : 3\nFormat : UTF-8\nCodec ID : S_TEXT/UTF8\nCodec ID/Info : UTF-8 Plain Text\nTitle : English\nLanguage : English\nDefault : Yes\nForced : No","torrent":{"xt":"urn:btih:a1e25324f991c421995f7fb46da093e926939f27","amp;dn":"Hausu.1977.BDRip.720p.x264-angrybunny-%5BCG%5D","amp;tr":["udp%3A%2F%2Ftracker.openbittorrent.com%3A80","udp%3A%2F%2Fopen.demonii.com%3A1337","udp%3A%2F%2Ftracker.coppersurfer.tk%3A6969","udp%3A%2F%2Fexodus.desync.com%3A6969"],"infoHash":"a1e25324f991c421995f7fb46da093e926939f27","infoHashBuffer":{"type":"Buffer","data":[161,226,83,36,249,145,196,33,153,95,127,180,109,160,147,233,38,147,159,39]},"announce":[],"urlList":[]}}